<svg width="32" height="32" viewBox="0 0 32 32" fill="none" xmlns="http://www.w3.org/2000/svg">
<path d="M11.2085 4.71205L10.8625 6.49922C10.5927 7.8925 9.15197 8.7243 7.81047 8.26131L6.08588 7.66611C5.7724 8.09272 5.50415 8.55423 5.288 9.04355L6.66736 10.2408C7.73915 11.1711 7.73913 12.8348 6.66736 13.7651L5.2878 14.9625C5.50389 15.4518 5.77208 15.9133 6.08549 16.3399L7.81047 15.7446C9.15197 15.2815 10.5927 16.1134 10.8625 17.5066L11.2087 19.2945C11.7318 19.3505 12.2796 19.3501 12.8025 19.2933L13.1484 17.5066C13.4183 16.1134 14.8589 15.2815 16.2004 15.7446L17.9169 16.337C18.2308 15.9093 18.4993 15.4465 18.7155 14.9558L17.3436 13.7651C16.2717 12.8348 16.2717 11.1711 17.3436 10.2408L18.7152 9.05024C18.4991 8.55956 18.2305 8.09679 17.9165 7.66905L16.2004 8.26131C14.8589 8.7243 13.4183 7.8925 13.1484 6.49923L12.8026 4.71324C12.2797 4.65642 11.7317 4.656 11.2085 4.71205ZM10.1649 2.85048C10.7591 2.73194 11.3729 2.66992 12.0001 2.66992C12.6318 2.66992 13.2497 2.7328 13.8479 2.85298C14.2455 2.93287 14.5555 3.24507 14.6325 3.64327L15.112 6.11902C15.1505 6.31804 15.3563 6.43688 15.548 6.37073L17.9273 5.54954C18.3105 5.41729 18.7357 5.52946 19.0037 5.83352C19.8151 6.75372 20.4484 7.83599 20.8487 9.02647C20.9779 9.41063 20.8624 9.83477 20.5564 10.1004L18.6545 11.7512C18.5015 11.8841 18.5015 12.1218 18.6545 12.2547L20.5565 13.9055C20.8627 14.1713 20.9781 14.5954 20.8489 14.9795C20.4487 16.1699 19.8153 17.2522 19.0043 18.1725C18.7361 18.4766 18.3111 18.5887 17.9279 18.4565L15.548 17.6351C15.3563 17.569 15.1505 17.6878 15.112 17.8869L14.6324 20.3633C14.5553 20.7615 14.2453 21.0737 13.8476 21.1535C13.2496 21.2737 12.6317 21.3366 12.0001 21.3366C11.3729 21.3366 10.7592 21.2746 10.165 21.1561C9.76676 21.0766 9.45611 20.7642 9.37889 20.3655L8.89895 17.8869C8.8604 17.6878 8.65459 17.569 8.46295 17.6351L6.07491 18.4593C5.69185 18.5915 5.26688 18.4795 4.99879 18.1757C4.18813 17.2567 3.55493 16.1762 3.15404 14.9875C3.02443 14.6031 3.1398 14.1786 3.44611 13.9127L5.35636 12.2547C5.50947 12.1218 5.50947 11.8841 5.35636 11.7512L3.44628 10.0933C3.13995 9.82739 3.02459 9.40279 3.15424 9.01844C3.55523 7.82976 4.18852 6.74917 4.99928 5.83036C5.26737 5.52653 5.69232 5.41452 6.07535 5.54672L8.46295 6.37073C8.65459 6.43688 8.8604 6.31804 8.89895 6.119L9.37877 3.64106C9.45597 3.24235 9.76663 2.92994 10.1649 2.85048ZM18.5875 19.5151C18.332 19.427 18.0459 19.4997 17.8825 19.715C17.5839 20.109 17.3327 20.5411 17.1376 21.0026C17.0324 21.2515 17.1125 21.5359 17.3167 21.7131L18.6595 22.8786C18.9379 23.1203 18.9379 23.5523 18.6595 23.7941L17.3165 24.9597C17.1124 25.1369 17.0323 25.4213 17.1375 25.6702C17.3325 26.1317 17.5836 26.5637 17.8823 26.9577C18.0455 27.173 18.3317 27.2458 18.5871 27.1577L20.2667 26.5779C20.6152 26.4577 20.9893 26.6737 21.0595 27.0355L21.3973 28.7806C21.4488 29.0462 21.6553 29.2579 21.9239 29.291C22.1672 29.3211 22.4152 29.3366 22.6667 29.3366C22.9183 29.3366 23.1661 29.3211 23.4095 29.291C23.678 29.2579 23.8847 29.0462 23.936 28.7806L24.2739 27.0355C24.344 26.6737 24.7183 26.4577 25.0667 26.5779L26.7463 27.1577C27.0017 27.2458 27.2879 27.173 27.4511 26.9577C27.7497 26.5637 28.0008 26.1317 28.1959 25.6702C28.3011 25.4213 28.2209 25.1369 28.0168 24.9598L26.6739 23.7941C26.3955 23.5523 26.3955 23.1203 26.6739 22.8786L28.0167 21.7131C28.2208 21.5359 28.3009 21.2515 28.1957 21.0026C28.0007 20.541 27.7495 20.109 27.4508 19.715C27.2875 19.4997 27.0013 19.427 26.746 19.5151L25.0667 20.0947C24.7183 20.215 24.344 19.999 24.2739 19.6371L23.9361 17.8926C23.8847 17.627 23.6781 17.4153 23.4096 17.3822C23.1663 17.3521 22.9183 17.3366 22.6667 17.3366C22.4151 17.3366 22.1672 17.3521 21.9237 17.3822C21.6552 17.4153 21.4487 17.627 21.3972 17.8926L21.0595 19.6371C20.9893 19.999 20.6152 20.215 20.2667 20.0947L18.5875 19.5151ZM22.6664 25.0041C21.7455 25.0041 20.9989 24.2575 20.9989 23.3366C20.9989 22.4158 21.7455 21.6693 22.6664 21.6693C23.5873 21.6693 24.3339 22.4158 24.3339 23.3366C24.3339 24.2575 23.5873 25.0041 22.6664 25.0041ZM10.6667 12.0032C10.6667 11.2669 11.2636 10.6699 12 10.6699C12.7365 10.6699 13.3333 11.2669 13.3333 12.0032C13.3333 12.7395 12.7365 13.3364 12 13.3364C11.2636 13.3364 10.6667 12.7395 10.6667 12.0032ZM12 8.66992C10.1591 8.66992 8.66671 10.1622 8.66671 12.0032C8.66671 13.8441 10.1591 15.3365 12 15.3365C13.8409 15.3365 15.3333 13.8441 15.3333 12.0032C15.3333 10.1622 13.8409 8.66992 12 8.66992Z" fill="url(#paint0_linear_45_77)"/>
<defs>
<linearGradient id="paint0_linear_45_77" x1="-4.38713" y1="16.0033" x2="28.2422" y2="16.0033" gradientUnits="userSpaceOnUse">
<stop stop-color="#E7A5EC"/>
<stop offset="0.460168" stop-color="#8687ED"/>
<stop offset="1" stop-color="#5D5BD4"/>
</linearGradient>
</defs>
</svg>
