<svg width="32" height="32" viewBox="0 0 32 32" fill="none" xmlns="http://www.w3.org/2000/svg">
<path fill-rule="evenodd" clip-rule="evenodd" d="M13.8992 6.85039C13.8992 10.0504 11.2992 12.5504 8.19922 12.5504C4.99922 12.5504 2.49922 10.0504 2.49922 6.85039C2.49922 3.65039 5.09922 1.15039 8.19922 1.15039C11.3992 1.15039 13.8992 3.75039 13.8992 6.85039ZM11.8992 6.95039C11.8992 4.85039 10.1992 3.25039 8.19922 3.25039C6.09922 3.25039 4.49922 4.85039 4.49922 6.95039C4.49922 9.05039 6.19922 10.6504 8.19922 10.6504C10.2992 10.6504 11.8992 8.95039 11.8992 6.95039Z" fill="url(#paint0_linear_45_78)"/>
<path fill-rule="evenodd" clip-rule="evenodd" d="M20.0992 17.5504V18.4504C25.5992 19.0504 30.3992 21.1504 30.2992 24.5504C30.2992 28.6504 22.8992 30.8504 15.9992 30.8504C9.09922 30.8504 1.69922 28.6504 1.69922 24.5504C1.69922 22.3504 3.79922 20.7504 6.69922 19.6504V17.5504C6.69922 16.5504 7.29922 15.7504 8.19922 15.3504L11.4992 13.9504C12.7992 13.4504 14.0992 13.4504 15.2992 13.9504L18.5992 15.3504C19.4992 15.7504 20.0992 16.5504 20.0992 17.5504ZM18.0992 22.4504V18.8504L14.3992 20.0504V24.0504H14.5992L17.8992 22.7504C17.9992 22.7504 18.0992 22.5504 18.0992 22.4504ZM12.4973 15.7994C12.4335 15.8161 12.3678 15.8332 12.2992 15.8504L9.39922 17.0504H9.69922L13.3992 18.4504L17.2992 17.0504H17.3992L14.4992 15.8504C14.1992 15.7504 13.7992 15.6504 13.3992 15.6504C13.0678 15.6504 12.8051 15.719 12.4973 15.7994ZM9.09922 18.8504C8.99922 18.8504 8.89922 18.7504 8.79922 18.6504H8.69922V22.5504C8.69922 22.6504 8.79922 22.7504 8.89922 22.8504L12.1992 24.1504H12.3992V20.0504L9.09922 18.8504ZM3.79922 24.5504C3.79922 26.5504 8.99922 28.8504 16.0992 28.8504C23.1992 28.8504 28.3992 26.5504 28.4992 24.5504C28.4992 22.8504 25.1992 21.1504 20.1992 20.4504V22.4504C20.1992 23.4504 19.5992 24.2504 18.6992 24.6504L15.3992 25.9504C14.7992 26.2504 14.1992 26.3504 13.4992 26.3504C12.7992 26.3504 12.1992 26.1504 11.5992 25.9504L8.29922 24.6504C7.39922 24.2504 6.79922 23.4504 6.79922 22.4504V21.8504C4.89922 22.6504 3.79922 23.6504 3.79922 24.5504Z" fill="url(#paint1_linear_45_78)"/>
<path fill-rule="evenodd" clip-rule="evenodd" d="M22.1358 14.4811C20.8022 13.7446 19.1875 12.1815 19.1875 12.1815C19.1875 12.1815 18.5 11.5059 18.1992 10.9272C17.8984 10.3484 18.0578 9.85866 18.5152 9.56602L26.759 4.29238C27.068 4.09475 27.4603 4.08209 27.7814 4.2594C28.1024 4.43672 28.3007 4.77555 28.2979 5.1423L28.2241 14.9283C28.2201 15.4661 27.7744 15.9126 27.2374 15.9206C26.7072 15.9256 26.1716 15.8503 25.6523 15.752C24.7257 15.5767 23.4694 15.2177 22.1358 14.4811ZM26.0241 13.7869C26.0953 13.8004 26.1647 13.8129 26.2324 13.8245L26.2841 6.97044L20.5046 10.6676L20.5214 10.6852C20.5473 10.7123 20.5673 10.7327 20.5794 10.745L20.5865 10.7521L20.5887 10.7542L20.6331 10.7964C20.6735 10.8346 20.7347 10.8919 20.813 10.9637C20.9701 11.108 21.1933 11.3081 21.4538 11.5286C22 11.991 22.6148 12.4609 23.1027 12.7304C24.2131 13.3437 25.2593 13.6422 26.0241 13.7869Z" fill="url(#paint2_linear_45_78)"/>
<defs>
<linearGradient id="paint0_linear_45_78" x1="-6.82039" y1="16.0004" x2="30.3008" y2="16.0004" gradientUnits="userSpaceOnUse">
<stop stop-color="#E7A5EC"/>
<stop offset="0.460168" stop-color="#8687ED"/>
<stop offset="1" stop-color="#5D5BD4"/>
</linearGradient>
<linearGradient id="paint1_linear_45_78" x1="-6.82039" y1="16.0004" x2="30.3008" y2="16.0004" gradientUnits="userSpaceOnUse">
<stop stop-color="#E7A5EC"/>
<stop offset="0.460168" stop-color="#8687ED"/>
<stop offset="1" stop-color="#5D5BD4"/>
</linearGradient>
<linearGradient id="paint2_linear_45_78" x1="-6.82039" y1="16.0004" x2="30.3008" y2="16.0004" gradientUnits="userSpaceOnUse">
<stop stop-color="#E7A5EC"/>
<stop offset="0.460168" stop-color="#8687ED"/>
<stop offset="1" stop-color="#5D5BD4"/>
</linearGradient>
</defs>
</svg>
